<svg width="720" height="220" viewBox="0 0 720 220" fill="none" xmlns="http://www.w3.org/2000/svg">
  <rect width="720" height="220" rx="32" fill="#FFFFFF"/>
  <rect x="54" y="42" width="136" height="136" rx="34" fill="#E8F7F0"/>
  <circle cx="122" cy="110" r="46" fill="#1E7A5A"/>
  <path d="M104 124C104 102 117 85 140 76C138 96 149 108 162 120C145 120 131 130 123 147C120 135 112 128 104 124Z" fill="#FFF3CF"/>
  <path d="M106 98C118 86 136 84 150 94" stroke="#FFFFFF" stroke-width="7" stroke-linecap="round"/>
  <path d="M102 114H142" stroke="#FFFFFF" stroke-width="6" stroke-linecap="round"/>
  <path d="M108 133H132" stroke="#FFFFFF" stroke-width="6" stroke-linecap="round"/>
  <circle cx="155" cy="78" r="8" fill="#B9824A"/>
  <path d="M157 70L173 56" stroke="#B9824A" stroke-width="5" stroke-linecap="round"/>
  <text x="220" y="103" font-family="PingFang SC, Noto Sans CJK SC, Microsoft YaHei, Arial, sans-serif" font-size="58" font-weight="800" fill="#123C32">谱灵 AI</text>
  <text x="224" y="148" font-family="PingFang SC, Noto Sans CJK SC, Microsoft YaHei, Arial, sans-serif" font-size="24" font-weight="500" fill="#687078">一句灵感，生成能弹唱的歌</text>
</svg>
